# xmcd
#
# Track frame offsets:
#	150
#	18203
#	34467
#	53371
#	75407
#	91526
#	104483
#	124757
#	144710
#	158483
#	174839
#	192592
#	206001
#	232943
#	246699
#
# Disc length: 3557 seconds
#
# Revision: 0
# Processed by: cddbd v1.5.2PL0 Copyright (c) Steve Scherf et al.
# Submitted via: EasyCDDAExtractor 15.2.0.1
#
DISCID=bb0de30f
DTITLE=Stevie Salas - The Essential Steve Salas Volume 1
DYEAR=2006
DGENRE=Rock and Blues
TTITLE0=Tell Your Story Walkin
TTITLE1=Break It Out (The Legend Of Johnny Puerco)
TTITLE2=The Grooveline (Featuring Bernard Fowler)
TTITLE3=The Harder They Come
TTITLE4=Cover Me In Noise
TTITLE5=Kickback
TTITLE6=Two Bullets And A Gun (Featuring Bootsy Collins)
TTITLE7=Start Again
TTITLE8=Moving Through Sound - A Dedicated Jam To James Marshall
TTITLE9=Born To Mack
TTITLE10=Hots On For Nowhere (Nicklebag - Featuring Bernard Fowler And Ronnie 
TTITLE10=Wood)
TTITLE11=Hoochie Toad
TTITLE12=Stand Up (Paris Bootleg)
TTITLE13=Make Me Blank (Paris Bootleg)
TTITLE14=Tell Your Story Walkin (Paris Bootleg)
EXTD=
EXTT0=
EXTT1=
EXTT2=
EXTT3=
EXTT4=
EXTT5=
EXTT6=
EXTT7=
EXTT8=
EXTT9=
EXTT10=
EXTT11=
EXTT12=
EXTT13=
EXTT14=
PLAYORDER=
